<svg width="21" height="39" viewBox="0 0 21 39" fill="none" xmlns="http://www.w3.org/2000/svg">
<path d="M1.71111 6.12564L8.16667 8.24605V4.24083L5.52222 1.41361H0L1.71111 6.12564Z" fill="#54784B"/>
<path d="M18.6859 5.60523L9.95556 8.12759V3.36314L13.5319 0H21L18.6859 5.60523Z" fill="#54784B"/>
<path d="M14.7301 10.7113C14.112 10.4249 13.4554 10.2091 12.7659 10.0736C7.41109 9.02089 2.09858 13.2064 0.900054 19.4221C0.577223 21.0964 1.17353 22.9868 1.82588 25.0549C2.19504 26.2252 2.58216 27.4524 2.83081 28.7296C2.96312 29.4091 3.08375 30.0899 3.20239 30.7594C3.28779 31.2413 3.37218 31.7175 3.45912 32.1831C10.2331 28.078 14.7663 20.5893 14.7663 12.0314C14.7663 11.5884 14.7541 11.1483 14.7301 10.7113Z" fill="url(#paint0_linear_83_2)"/>
<path d="M3.84291 34.0372C11.2981 29.7672 16.3718 21.7455 16.5415 12.5099L16.4865 11.7834C19.5858 14.1906 21.2208 18.6343 20.3295 23.2569C19.131 29.4726 12.5996 39.9792 7.24483 38.9265C6.88819 38.8564 6.56793 38.7305 6.27899 38.5554C5.0075 37.8109 4.33529 36.1251 3.84291 34.0372Z" fill="url(#paint1_linear_83_2)"/>
<defs>
<linearGradient id="paint0_linear_83_2" x1="9.72222" y1="25.1308" x2="18.9448" y2="38.8705" gradientUnits="userSpaceOnUse">
<stop stop-color="#F1AB22" stop-opacity="0.5"/>
<stop offset="1" stop-color="#A3F84E"/>
</linearGradient>
<linearGradient id="paint1_linear_83_2" x1="9.72222" y1="25.1308" x2="18.9448" y2="38.8705" gradientUnits="userSpaceOnUse">
<stop stop-color="#F1AB22" stop-opacity="0.5"/>
<stop offset="1" stop-color="#A3F84E"/>
</linearGradient>
</defs>
</svg>
